<?xml version="1.0" encoding="utf-8"?>
<!-- Generator: Adobe Illustrator 27.5.0, SVG Export Plug-In . SVG Version: 6.00 Build 0)  -->
<svg version="1.1" xmlns="http://www.w3.org/2000/svg" xmlns:xlink="http://www.w3.org/1999/xlink" x="0px" y="0px"
	 viewBox="0 0 500 500" style="enable-background:new 0 0 500 500;" xml:space="preserve">
<symbol  id="New_Symbol" viewBox="-8 -16 16 31.602">
	<g>
		<path style="fill:#FFFFFF;" d="M4.294,11.78c0-2.11-1.712-3.822-3.822-3.822c-2.109,0-3.821,1.711-3.821,3.822
			c0,2.11,1.712,3.822,3.821,3.822C2.582,15.602,4.294,13.891,4.294,11.78z"/>
	</g>
	<path style="fill:#FFFFFF;" d="M3.84,7C3.685,7,3.412,7,3.412,7h-7.403l0,0C-6.082,7-8,5.045-8,2.901V-6h3v8.901
		c0,0.583,0,1.078,1,1.267V-6.85l0,0V-16h3v10h3v-10h2v6.374l0,0V4.179c1-0.18,1-0.682,1-1.278V-6h3v8.901C8,5.179,6.187,7,3.84,7z"
		/>
	<rect x="-8" y="-16" style="display:none;fill:none;" width="16" height="31"/>
</symbol>
<g id="Background">
</g>
<g id="Objects">
	<path style="fill:#E1F9FF;" d="M401.914,189.172l-8.259,0.138l-4.145-4.544l-0.793-7.306l-4.236,2.314l-2.282,8.932l-6.12-6.516
		l-0.248-6.158l-5.914-5.089l-2.183-2.168h-6.861l2.171,6.11l8.254,4.601l1.433,1.52l-1.782,0.894l0.066,4.839L367,188.419
		l-3.439-0.754l-2.138-3.04l5.576,0.3l1.508-2.031l-12.372-8.345l-0.939-3.553l-5.024,4.543l-5.1-1.047l-7.755,10.08l-1.52,3.947
		l-4.958,0.452l-7.339,0.046l-4.385-2.05l-1.291-8.713l1.574-4.154l7.465-1.635l8.146,1.635l0.987-4.506l-3.458-0.817l1.185-7.015
		l8.194-1.282l5.73-8.095l5.918-0.993l5.342,0.79h1.964l-1.077-7.601l-6.496,2.622l-2.282-5.681l-3.764-0.525l-0.709-3.895
		l3.082-3.347l7.304-2.865l1.884-3.359c-27.843-24.531-64.319-39.486-104.233-39.575c-0.119-0.001-0.237-0.004-0.357-0.004
		c-34.76,0-66.917,11.283-93.074,30.337l7.99-0.064l3.557,1.971l6.707,1.446l0.523,2.637l10.668,0.393l-1.445-3.419l-9.477-0.265
		l2.232-2.102l-0.78-2.506h-8.569l9.35-6.978h8.953l4.21,5.797l6.988,0.394l4.204-4.087l3.167,1.582l-5.798,5.663
		c0,0-8.031,0.134-7.634,0.134c0.396,0,0.666,5.526,0.666,5.526l9.726-0.269l1.064-2.627l6.705-0.397l0.793-3.945l-3.949-0.666
		l1.319-3.551l3.026-0.918l10.534,0.521l-5.813,5.27l0.942,4.075l6.053,0.925l-0.397-7.372l5.793-3.03l10.276-1.184l11.845,5.247
		l3.02,1.338v5.66l4.747,1.183l-2.374,4.477h-5.394h-1.319l-1.983,5.132l-15.349-3.622l12.061-6.424l-4.603-3.908l-10.403,1.314
		l-0.908,0.942l-0.034-0.017l-0.169,0.226l-2.992,3.11l-4.944,0.417l0.398,2.469l1.723,0.713l-0.068,0.814l-4.02,0.574l-0.298,2.337
		l-3.854,0.202l-0.693-4.641l-6.914,2.102l-14.117,8.267l1.588,5.817l3.947,2.573l7.896,1.09v8.976l3.645-0.588l3.364-7.011
		l8.395-2.661v-10.765l4.667-3.525l11.293,2.664l-0.795,7.113h3.034l8.294-4.079l0.396,9.342l2.765,1.686l3.276,1.997l-0.256,5.54
		l-3.02,1.028v3.854l4.601,2.096l-0.135,3.814l-2.023,0.171c-0.008-0.063-0.014-0.103-0.014-0.103l-2.429-0.748l-6.377-1.966
		l-0.369-2.821h-0.013l2.568-1.77v-2.572l-2.766-0.693l-0.684,2.375l-4.85,0.75l-0.484-0.161v0.242l-1.682,0.255l-1.373-2.768
		l-1.586-0.693h-3.457l-1.573,1.285v2.862l2.959,0.985l2.918,0.41l-0.652,0.286l-2.662,2.953l-1.178-1.476l-2.57-0.68l-7.015,6.601
		l0.915,0.753l-10.358,5.733l-9.745,10.137l-0.66,4.513l-9.772,6.416l-4.837,4.87l0.532,9.739l-6.72-3.127l0.054-5.697
		l-18.685,0.008l-9.672,4.899l-4.211,7.744l-1.661,6.145l2.725,5.955l7.619,0.929l12.113-8.101l1.063,4.015l-3.698,6.985
		l9.229,1.574l0.914,14.243l12.645,2.146l8.025-9.282l9.745,1.982l3.423,4.76l9.343-0.551l0.263-2.765l5.132,2.503l5.797,9.076
		l9.996,0.14l3.692,6.453l0.525,7.893l7.115,2.71l3.949,1.504l13.947,0.134l4.091,6.703l6.182,1.98l-1.19,5.535l-6.78,8.617
		l-1.977,19.06l-6.114,4.839l-9.087-0.271l-3.02,5.246v0.046l2.239,9.852l-2.239,2.864l-7.641,9.773l-3.155,5.794l-9.415,4.526
		l-6.194,0.939l-0.257,2.625l4.346,1.25l-0.526,2.826l-3.893,3.752l2.367,2.971l4.682,0.132l-0.263,3.619l-1.245,3.555l-0.402,2.893
		l6.927,5.834l-0.922,3.031l-9.422-0.179l-9.384-8.188l-7.311-12.845l1.023-12.398l-5.529-7.375l2.24-12.5l-3.29-0.925v-27.115
		c0,0-9.214-6.986-9.738-6.986c-0.525,0-4.869-1.181-4.869-1.181l-0.928-5.133l-11.973-15.009l1.184-5.395l0.391-8.823l8.285-5.791
		l-1.184-9.877l-12.106-0.91l-9.478-10.802l-6.711-1.837l-4.34-0.796l0.518-3.947l-5.527-0.788v2.236l-13.823-3.42l-5.563-8.512
		l2.268-4.125l-8.759-12.774l-1.506-9.345h-3.551l1.183,9.081l6.054,9.345l-0.658,3.693l-5.133-0.791l-6.315-10.768v-12.532
		l-6.578-3.163v-9.017c-8.139,19.051-12.651,40.007-12.651,61.998c0,87.35,71.066,158.417,158.418,158.417
		c0.119,0,0.237-0.005,0.357-0.005c49.38-0.111,93.507-22.939,122.507-58.553h-5.225v-10.531l-6.041-8.145v-12.664l-4.622-4.597
		l-0.395-5.27l5.858-11.192l-11.119-19.616l1.32-13.306l-10.01-1.041l-3.679-3.686h-6.721l-3.417,3.157h-11.851l-0.396,1.052h-6.586
		l-15.133-17.238l0.12-13.432l2.503-0.919l0.928-5.138h-3.551l-1.453-5.396l17.515-12.634v-8.952l8.568-4.759l3.464,0.347h7.056
		l5.517-2.962l17.776-1.386v9.086l14.022,3.556l2.765,1.974h2.57v-4.943l8.091-0.787l7.707,5.73h12.633l0.888-0.811
		C404.94,197.466,403.509,193.281,401.914,189.172z M327.108,144.083l1.452-2.233l5.199-1.052l1.311,6.322l2.773,4.473l1.834,2.111
		l3.358,1.309l-3.154,3.76l-6.122,0.588h-4.607l0.517-5.461l3.829-0.794l-0.325-2.566l-3.565-2.24l-2.5-1.708V144.083z
		 M318.552,153.964l3.169-5.067l4.264-0.99l3.04,1.319l-0.275,3.419l-6.511,4.608h-3.687V153.964z M232.485,173.446l-3.296,0.277
		l0.176-2.291l1.48-1.839l1.977,1.554L232.485,173.446z M244.056,169.397l-2.255,0.196l-0.457,2.179l-1.734,1.079l-2.779,0.231
		c-0.093-0.651-0.161-1.149-0.161-1.149h-1.076v-2.34h4.535l0.941-2.419l1.801-0.036l2.064,0.427L244.056,169.397z"/>
	<g>
		
			<ellipse transform="matrix(0.7071 -0.7071 0.7071 0.7071 -101.6957 251.9941)" style="fill:none;stroke:#3A6EBA;stroke-width:2;stroke-linecap:round;stroke-linejoin:round;stroke-miterlimit:10;stroke-dasharray:8,6;" cx="253.336" cy="248.755" rx="183.397" ry="183.396"/>
		<g>
			<path style="fill:#6BE0FF;" d="M99.804,254.032c0,16.278-13.195,29.475-29.474,29.475c-16.277,0-29.475-13.196-29.475-29.475
				c0-16.278,13.197-29.474,29.475-29.474C86.608,224.558,99.804,237.754,99.804,254.032z"/>
			<g>
				<path style="fill:#FFFFFF;" d="M77.604,236.99h-14.53c-5.479,0-9.92,4.443-9.92,9.921v14.529c0,5.48,4.441,9.92,9.92,9.92h14.53
					c5.479,0,9.919-4.44,9.919-9.92V246.91C87.523,241.433,83.083,236.99,77.604,236.99 M84.359,261.695
					c0,3.639-2.949,6.586-6.586,6.586H62.904c-3.637,0-6.585-2.947-6.585-6.586v-14.869c0-3.636,2.948-6.585,6.585-6.585h14.869
					c3.637,0,6.586,2.949,6.586,6.585V261.695z"/>
				<g>
					<path style="fill:#FFFFFF;" d="M70.384,245.898c-4.925,0-8.919,3.994-8.919,8.919c0,4.926,3.994,8.918,8.919,8.918
						c4.925,0,8.918-3.992,8.918-8.918C79.302,249.892,75.309,245.898,70.384,245.898 M70.384,260.596
						c-3.192,0-5.781-2.586-5.781-5.779c0-3.193,2.589-5.782,5.781-5.782c3.193,0,5.781,2.588,5.781,5.782
						C76.165,258.01,73.577,260.596,70.384,260.596"/>
					<path style="fill:#FFFFFF;" d="M79.601,243.482c-1.148,0-2.079,0.93-2.079,2.076c0,1.148,0.931,2.078,2.079,2.078
						c1.146,0,2.077-0.93,2.077-2.078C81.678,244.412,80.746,243.482,79.601,243.482"/>
				</g>
			</g>
		</g>
		<g>
			<path style="fill:#3A6EBA;" d="M372.804,419.032c0,16.278-13.195,29.475-29.474,29.475c-16.277,0-29.475-13.196-29.475-29.475
				s13.197-29.474,29.475-29.474C359.608,389.559,372.804,402.754,372.804,419.032z"/>
			<g>
				<path style="fill:#FFFFFF;" d="M350.604,401.99h-14.53c-5.478,0-9.92,4.443-9.92,9.92v14.529c0,5.48,4.441,9.92,9.92,9.92h14.53
					c5.479,0,9.919-4.44,9.919-9.92V411.91C360.523,406.434,356.083,401.99,350.604,401.99 M357.359,426.695
					c0,3.639-2.949,6.586-6.586,6.586h-14.869c-3.637,0-6.585-2.947-6.585-6.586v-14.869c0-3.637,2.948-6.584,6.585-6.584h14.869
					c3.637,0,6.586,2.947,6.586,6.584V426.695z"/>
				<g>
					<path style="fill:#FFFFFF;" d="M343.384,410.898c-4.925,0-8.919,3.994-8.919,8.918c0,4.926,3.994,8.918,8.919,8.918
						c4.925,0,8.918-3.992,8.918-8.918C352.302,414.893,348.309,410.898,343.384,410.898 M343.384,425.596
						c-3.192,0-5.781-2.586-5.781-5.779c0-3.193,2.589-5.781,5.781-5.781c3.193,0,5.781,2.588,5.781,5.781
						C349.165,423.01,346.577,425.596,343.384,425.596"/>
					<path style="fill:#FFFFFF;" d="M352.601,408.482c-1.148,0-2.079,0.93-2.079,2.076c0,1.148,0.931,2.078,2.079,2.078
						c1.146,0,2.077-0.93,2.077-2.078C354.678,409.412,353.746,408.482,352.601,408.482"/>
				</g>
			</g>
		</g>
		<g>
			<path style="fill:#6BE0FF;" d="M259.195,65.699c0,10.79-8.746,19.538-19.537,19.538S220.12,76.49,220.12,65.699
				c0-10.79,8.747-19.538,19.538-19.538S259.195,54.909,259.195,65.699z"/>
			<path style="fill-rule:evenodd;clip-rule:evenodd;fill:#FFFFFF;" d="M238.422,68.809c-0.016,0.056-0.031,0.103-0.042,0.15
				c-0.717,2.805-0.796,3.428-1.532,4.729c-0.351,0.619-0.746,1.206-1.183,1.768c-0.05,0.062-0.097,0.144-0.194,0.125
				c-0.106-0.023-0.115-0.121-0.127-0.208c-0.118-0.852-0.183-1.706-0.155-2.565c0.037-1.121,0.176-1.506,1.621-7.583
				c0.02-0.091-0.003-0.169-0.033-0.251c-0.347-0.934-0.415-1.88-0.113-2.84c0.654-2.073,3.003-2.23,3.415-0.52
				c0.253,1.057-0.418,2.441-0.932,4.485c-0.425,1.689,1.561,2.888,3.261,1.656c1.564-1.135,2.173-3.858,2.058-5.788
				c-0.229-3.848-4.447-4.679-7.125-3.44c-3.068,1.418-3.766,5.222-2.379,6.961c0.174,0.221,0.309,0.355,0.252,0.58
				c-0.09,0.349-0.169,0.7-0.265,1.045c-0.071,0.258-0.286,0.352-0.547,0.247c-0.511-0.207-0.938-0.534-1.283-0.961
				c-1.176-1.457-1.512-4.338,0.044-6.779c1.724-2.703,4.93-3.796,7.855-3.464c3.497,0.397,5.707,2.786,6.12,5.496
				c0.189,1.235,0.054,4.28-1.679,6.432c-1.994,2.472-5.227,2.635-6.717,1.117C238.628,69.084,238.535,68.948,238.422,68.809z"/>
		</g>
		<g>
			<path style="fill:#3A6EBA;" d="M115.195,340.699c0,10.791-8.746,19.537-19.537,19.537S76.12,351.49,76.12,340.699
				c0-10.79,8.747-19.538,19.538-19.538S115.195,329.909,115.195,340.699z"/>
			<path style="fill-rule:evenodd;clip-rule:evenodd;fill:#FFFFFF;" d="M94.422,343.809c-0.016,0.057-0.031,0.104-0.042,0.15
				c-0.717,2.805-0.796,3.428-1.532,4.73c-0.351,0.619-0.746,1.207-1.183,1.767c-0.05,0.063-0.097,0.145-0.194,0.125
				c-0.106-0.023-0.115-0.121-0.127-0.207c-0.118-0.853-0.183-1.707-0.155-2.566c0.037-1.121,0.176-1.506,1.621-7.582
				c0.021-0.092-0.003-0.17-0.033-0.252c-0.347-0.934-0.415-1.881-0.113-2.84c0.654-2.072,3.003-2.23,3.415-0.52
				c0.253,1.057-0.418,2.441-0.932,4.484c-0.425,1.689,1.562,2.889,3.261,1.656c1.564-1.135,2.173-3.857,2.058-5.787
				c-0.229-3.85-4.447-4.68-7.125-3.441c-3.068,1.418-3.766,5.223-2.379,6.961c0.174,0.221,0.309,0.355,0.252,0.58
				c-0.09,0.35-0.169,0.699-0.265,1.045c-0.071,0.258-0.286,0.352-0.547,0.248c-0.511-0.207-0.938-0.535-1.283-0.963
				c-1.176-1.457-1.512-4.338,0.044-6.777c1.724-2.703,4.93-3.797,7.855-3.465c3.497,0.396,5.707,2.785,6.12,5.496
				c0.188,1.234,0.054,4.279-1.679,6.432c-1.994,2.471-5.227,2.635-6.717,1.117C94.628,344.084,94.535,343.947,94.422,343.809z"/>
		</g>
		<g>
			<path style="fill:#6BE0FF;" d="M459.143,236.588c-0.182,14.627-12.186,26.337-26.813,26.154
				c-14.627-0.182-26.336-12.186-26.154-26.812c0.182-14.626,12.186-26.336,26.813-26.154
				C447.615,209.958,459.325,221.961,459.143,236.588z"/>
			<g>
				<path style="fill:#FFFFFF;" d="M424.484,242.198c2.356,0.029,4.243,1.967,4.215,4.323c-0.031,2.36-1.964,4.247-4.32,4.217
					c-2.358-0.029-4.245-1.963-4.215-4.323C420.192,244.059,422.127,242.169,424.484,242.198z"/>
				<path style="fill:#FFFFFF;" d="M420.295,236.203c7.943,0.099,14.344,6.624,14.243,14.691l5.939,0.074
					c0.14-11.275-8.879-20.563-20.107-20.702L420.295,236.203z"/>
				<path style="fill:#FFFFFF;" d="M420.434,225.677c13.733,0.171,24.769,11.546,24.596,25.351l5.935,0.074
					c0.212-17.084-13.449-31.153-30.456-31.364L420.434,225.677z"/>
			</g>
		</g>
		<g>
			<path style="fill:#3A6EBA;" d="M208.143,420.588c-0.182,14.627-12.185,26.337-26.813,26.154
				c-14.627-0.182-26.336-12.186-26.154-26.813c0.182-14.627,12.187-26.336,26.813-26.154
				C196.615,393.957,208.325,405.961,208.143,420.588z"/>
			<g>
				<path style="fill:#FFFFFF;" d="M173.484,426.197c2.356,0.029,4.243,1.967,4.215,4.324c-0.031,2.359-1.964,4.246-4.32,4.217
					c-2.358-0.029-4.245-1.963-4.215-4.322C169.192,428.059,171.127,426.168,173.484,426.197z"/>
				<path style="fill:#FFFFFF;" d="M169.295,420.203c7.943,0.1,14.344,6.625,14.243,14.691l5.938,0.074
					c0.14-11.275-8.879-20.565-20.107-20.703L169.295,420.203z"/>
				<path style="fill:#FFFFFF;" d="M169.434,409.678c13.733,0.17,24.769,11.545,24.596,25.352l5.935,0.074
					c0.212-17.084-13.449-31.154-30.456-31.365L169.434,409.678z"/>
			</g>
		</g>
		<g>
			<path style="fill:#3A6EBA;" d="M95.863,195.681c0,9.52-7.718,17.236-17.236,17.236c-9.52,0-17.236-7.716-17.236-17.236
				c0-9.519,7.717-17.235,17.236-17.235C88.145,178.445,95.863,186.162,95.863,195.681z"/>
			<path style="fill:#FFFFFF;" d="M78.765,206.095c-0.063,0-0.121-0.002-0.166-0.005c-0.035,0.004-0.072,0.005-0.11,0.005
				c-1.302,0-2.174-0.616-2.941-1.16c-0.552-0.389-1.071-0.756-1.679-0.858c-0.3-0.05-0.598-0.074-0.885-0.074
				c-0.519,0-0.927,0.08-1.227,0.139c-0.184,0.036-0.343,0.067-0.464,0.067c-0.129,0-0.284-0.029-0.351-0.251
				c-0.051-0.175-0.088-0.345-0.124-0.508c-0.088-0.408-0.153-0.657-0.306-0.68c-1.634-0.253-2.6-0.624-2.792-1.075
				c-0.018-0.044-0.031-0.091-0.034-0.14c-0.007-0.135,0.087-0.252,0.221-0.273c1.296-0.215,2.45-0.9,3.429-2.04
				c0.757-0.882,1.129-1.725,1.169-1.818c0.003-0.004,0.005-0.009,0.006-0.013c0.189-0.382,0.228-0.713,0.113-0.982
				c-0.212-0.496-0.909-0.717-1.369-0.865c-0.116-0.035-0.224-0.07-0.311-0.104c-0.41-0.162-1.081-0.504-0.992-0.974
				c0.065-0.343,0.521-0.583,0.887-0.583c0.102,0,0.192,0.018,0.269,0.054c0.415,0.194,0.789,0.293,1.109,0.293
				c0.398,0,0.592-0.153,0.639-0.197c-0.012-0.217-0.025-0.436-0.039-0.654c-0.094-1.49-0.212-3.346,0.264-4.409
				c1.42-3.186,4.433-3.433,5.322-3.433c0.146-0.002,0.293-0.002,0.44-0.005c0.891,0,3.911,0.247,5.331,3.436
				c0.475,1.063,0.357,2.921,0.263,4.413l-0.004,0.072c-0.013,0.202-0.025,0.394-0.035,0.579c0.044,0.042,0.222,0.181,0.579,0.194
				c0.307-0.012,0.659-0.11,1.046-0.291c0.12-0.056,0.252-0.068,0.343-0.068c0.137,0,0.274,0.026,0.39,0.074l0.006,0.003
				c0.328,0.117,0.543,0.35,0.549,0.594c0.005,0.229-0.166,0.57-1.001,0.9c-0.084,0.034-0.193,0.069-0.31,0.104
				c-0.461,0.148-1.158,0.369-1.369,0.865c-0.114,0.269-0.075,0.6,0.112,0.982c0.002,0.004,0.004,0.009,0.007,0.013
				c0.058,0.135,1.464,3.341,4.6,3.857c0.131,0.023,0.225,0.14,0.219,0.274c-0.004,0.05-0.015,0.098-0.035,0.143
				c-0.19,0.448-1.155,0.817-2.791,1.071c-0.153,0.023-0.218,0.271-0.306,0.677c-0.037,0.168-0.074,0.331-0.125,0.504
				c-0.047,0.164-0.153,0.244-0.323,0.244h-0.025c-0.111,0-0.268-0.021-0.466-0.06c-0.346-0.066-0.733-0.129-1.225-0.129
				c-0.288,0-0.585,0.025-0.884,0.074c-0.608,0.102-1.128,0.469-1.678,0.856C80.939,205.479,80.067,206.095,78.765,206.095"/>
		</g>
		<g>
			<path style="fill:#6BE0FF;" d="M390.526,110.959c0,9.063-7.348,16.411-16.411,16.411c-9.063,0-16.411-7.347-16.411-16.411
				c0-9.064,7.349-16.41,16.411-16.41C383.179,94.549,390.526,101.895,390.526,110.959z"/>
			<path style="fill:#FFFFFF;" d="M374.118,100.428h-0.006v-0.001c-5.885,0-10.671,4.788-10.671,10.674
				c0,2.334,0.752,4.499,2.033,6.256l-1.33,3.967l4.102-1.313c1.688,1.118,3.701,1.765,5.872,1.765
				c5.884,0,10.67-4.788,10.67-10.675C384.788,105.215,380.002,100.428,374.118,100.428z M380.33,115.5
				c-0.259,0.728-1.281,1.331-2.097,1.506c-0.559,0.119-1.285,0.214-3.737-0.803c-3.137-1.299-5.158-4.486-5.315-4.692
				c-0.15-0.21-1.268-1.688-1.268-3.22c0-1.532,0.779-2.278,1.092-2.598c0.258-0.263,0.685-0.382,1.092-0.382
				c0.133,0,0.251,0.006,0.358,0.011c0.313,0.014,0.471,0.032,0.677,0.528c0.257,0.622,0.885,2.152,0.959,2.308
				c0.077,0.158,0.151,0.371,0.045,0.58c-0.101,0.212-0.189,0.306-0.344,0.489c-0.158,0.182-0.31,0.32-0.466,0.513
				c-0.144,0.169-0.307,0.354-0.124,0.665c0.181,0.308,0.809,1.332,1.731,2.152c1.191,1.061,2.158,1.4,2.503,1.544
				c0.257,0.108,0.564,0.081,0.752-0.119c0.239-0.257,0.534-0.684,0.836-1.103c0.214-0.303,0.48-0.34,0.763-0.234
				c0.289,0.101,1.814,0.855,2.128,1.011c0.313,0.156,0.521,0.231,0.597,0.365C380.586,114.151,380.586,114.771,380.33,115.5z"/>
		</g>
		<g>
			
				<ellipse transform="matrix(0.0117 -0.9999 0.9999 0.0117 -257.3739 517.5164)" style="fill:#6BE0FF;" cx="133.115" cy="388.959" rx="16.41" ry="16.411"/>
			<path style="fill:#FFFFFF;" d="M133.118,378.428h-0.006l0,0c-5.885,0-10.671,4.787-10.671,10.674
				c0,2.334,0.752,4.498,2.033,6.256l-1.33,3.967l4.102-1.313c1.688,1.117,3.701,1.764,5.872,1.764
				c5.884,0,10.67-4.787,10.67-10.674C143.788,383.215,139.002,378.428,133.118,378.428z M139.33,393.5
				c-0.259,0.728-1.281,1.332-2.097,1.506c-0.559,0.119-1.285,0.215-3.737-0.803c-3.137-1.299-5.158-4.486-5.315-4.693
				c-0.15-0.209-1.268-1.688-1.268-3.219c0-1.533,0.779-2.279,1.092-2.6c0.258-0.262,0.685-0.381,1.092-0.381
				c0.133,0,0.251,0.006,0.358,0.01c0.313,0.016,0.471,0.033,0.677,0.529c0.257,0.621,0.885,2.152,0.959,2.309
				c0.077,0.158,0.151,0.369,0.045,0.578c-0.101,0.213-0.189,0.307-0.344,0.49c-0.158,0.182-0.31,0.318-0.466,0.512
				c-0.144,0.17-0.307,0.353-0.124,0.666c0.181,0.309,0.809,1.332,1.731,2.152c1.191,1.061,2.158,1.4,2.503,1.545
				c0.257,0.107,0.564,0.08,0.752-0.119c0.239-0.258,0.534-0.684,0.836-1.103c0.214-0.303,0.48-0.34,0.763-0.234
				c0.289,0.102,1.814,0.855,2.128,1.01c0.313,0.156,0.52,0.232,0.597,0.365C139.586,392.15,139.586,392.772,139.33,393.5z"/>
		</g>
		<g>
			<path style="fill:#6BE0FF;" d="M145.552,130.259c0,16.278-13.196,29.474-29.475,29.474c-16.278,0-29.476-13.195-29.476-29.474
				s13.197-29.474,29.476-29.474C132.355,100.785,145.552,113.981,145.552,130.259z"/>
			<path style="fill:#FFFFFF;" d="M135.281,118.487c-1.412,0.628-2.93,1.051-4.525,1.242c1.627-0.976,2.875-2.521,3.464-4.361
				c-1.547,0.92-3.239,1.567-5.004,1.912c-1.437-1.529-3.484-2.486-5.751-2.486c-4.351,0-7.878,3.527-7.878,7.881
				c0,0.615,0.068,1.216,0.203,1.796c-6.549-0.328-12.354-3.466-16.241-8.233c-0.68,1.165-1.067,2.517-1.067,3.962
				c0,2.732,1.392,5.144,3.506,6.556c-1.251-0.038-2.477-0.375-3.569-0.983v0.1c0,3.817,2.716,7,6.321,7.723
				c-0.664,0.183-1.358,0.278-2.077,0.278c-0.508,0-1.001-0.048-1.483-0.138c1.002,3.13,3.913,5.407,7.36,5.471
				c-2.698,2.114-6.096,3.374-9.786,3.374c-0.636,0-1.265-0.039-1.881-0.113c3.488,2.237,7.629,3.542,12.078,3.542
				c14.493,0,22.42-12.007,22.42-22.419c0-0.34-0.009-0.679-0.025-1.018C132.89,121.455,134.224,120.073,135.281,118.487
				L135.281,118.487z"/>
		</g>
		<g>
			<path style="fill:#3A6EBA;" d="M192.769,82.943c0,10.279-8.332,18.611-18.61,18.611c-10.279,0-18.611-8.332-18.611-18.611
				c0-10.278,8.332-18.611,18.611-18.611C184.436,64.332,192.769,72.665,192.769,82.943z"/>
			<g>
				<path style="fill:#FFFFFF;" d="M166.982,80.598h3.079v9.892h-3.079V80.598z M168.521,75.683c0.985,0,1.783,0.798,1.783,1.78
					c0,0.987-0.798,1.786-1.783,1.786c-0.986,0-1.783-0.799-1.783-1.786C166.738,76.48,167.535,75.683,168.521,75.683"/>
				<path style="fill:#FFFFFF;" d="M171.991,80.598h2.948v1.354h0.041c0.411-0.778,1.414-1.6,2.91-1.6
					c3.113,0,3.688,2.049,3.688,4.711v5.428h-3.072v-4.809c0-1.15-0.021-2.623-1.598-2.623c-1.601,0-1.845,1.249-1.845,2.537v4.895
					h-3.072V80.598z"/>
			</g>
		</g>
		<g>
			<path style="fill:#6BE0FF;" d="M424.769,354.943c0,10.279-8.332,18.611-18.61,18.611c-10.279,0-18.611-8.332-18.611-18.611
				c0-10.277,8.332-18.611,18.611-18.611C416.436,336.332,424.769,344.666,424.769,354.943z"/>
			<g>
				<path style="fill:#FFFFFF;" d="M398.982,352.598h3.079v9.893h-3.079V352.598z M400.522,347.684c0.985,0,1.783,0.797,1.783,1.779
					c0,0.986-0.798,1.785-1.783,1.785c-0.986,0-1.783-0.799-1.783-1.785C398.738,348.48,399.535,347.684,400.522,347.684"/>
				<path style="fill:#FFFFFF;" d="M403.991,352.598h2.948v1.354h0.041c0.411-0.777,1.414-1.6,2.91-1.6
					c3.113,0,3.688,2.049,3.688,4.711v5.428h-3.072v-4.809c0-1.15-0.021-2.623-1.598-2.623c-1.601,0-1.845,1.25-1.845,2.537v4.895
					h-3.072V352.598z"/>
			</g>
		</g>
		<g>
			<path style="fill:#6BE0FF;" d="M279.769,434.943c0,10.279-8.332,18.611-18.61,18.611c-10.279,0-18.611-8.332-18.611-18.611
				c0-10.277,8.332-18.611,18.611-18.611C271.436,416.332,279.769,424.666,279.769,434.943z"/>
			<g>
				<path style="fill:#FFFFFF;" d="M253.982,432.598h3.079v9.893h-3.079V432.598z M255.521,427.684c0.985,0,1.783,0.797,1.783,1.779
					c0,0.986-0.798,1.785-1.783,1.785c-0.986,0-1.783-0.799-1.783-1.785C253.738,428.48,254.535,427.684,255.521,427.684"/>
				<path style="fill:#FFFFFF;" d="M258.991,432.598h2.948v1.354h0.041c0.411-0.777,1.414-1.6,2.91-1.6
					c3.113,0,3.688,2.049,3.688,4.711v5.428h-3.072v-4.809c0-1.15-0.021-2.623-1.598-2.623c-1.601,0-1.845,1.25-1.845,2.537v4.895
					h-3.072V432.598z"/>
			</g>
		</g>
		<g>
			<path style="fill:#3A6EBA;" d="M440.334,172.417c0.125,12.294-9.738,22.361-22.031,22.486
				c-12.293,0.126-22.36-9.738-22.485-22.031c-0.126-12.292,9.738-22.36,22.03-22.485
				C430.141,150.261,440.208,160.124,440.334,172.417z"/>
			<path style="fill:#FFFFFF;" d="M423.807,172.785l-9.654,5.708l-0.031-11.359L423.807,172.785z M432.855,178.03l-0.027-10.561
				c0,0-0.014-5.09-5.106-5.076l-19.354,0.052c0,0-5.087,0.013-5.074,5.103l0.029,10.561c0,0,0.013,5.087,5.101,5.074l19.355-0.052
				C427.779,183.13,432.869,183.116,432.855,178.03"/>
		</g>
		<g>
			<path style="fill:#3A6EBA;" d="M452.334,297.416c0.125,12.294-9.738,22.361-22.031,22.486
				c-12.293,0.126-22.36-9.738-22.485-22.031c-0.126-12.292,9.738-22.359,22.03-22.484
				C442.141,275.261,452.208,285.124,452.334,297.416z"/>
			<path style="fill:#FFFFFF;" d="M435.807,297.785l-9.654,5.707l-0.031-11.359L435.807,297.785z M444.855,303.029l-0.027-10.56
				c0,0-0.014-5.09-5.106-5.076l-19.354,0.051c0,0-5.087,0.014-5.074,5.104l0.029,10.56c0,0,0.013,5.088,5.101,5.074l19.355-0.051
				C439.779,308.131,444.869,308.117,444.855,303.029"/>
		</g>
		<g>
			<path style="fill:#3A6EBA;" d="M341.76,77.579c0,12.03-9.752,21.783-21.782,21.783c-12.03,0-21.783-9.753-21.783-21.783
				c0-12.029,9.753-21.783,21.783-21.783C332.008,55.796,341.76,65.55,341.76,77.579z"/>
			<path style="fill:#FFFFFF;" d="M326.879,72.488h-4.7v-3.084c0-1.158,0.768-1.428,1.308-1.428c0.538,0,3.316,0,3.316,0v-5.089
				l-4.568-0.019c-5.072,0-6.227,3.797-6.227,6.227v3.392h-2.933v5.244h2.933c0,6.732,0,14.841,0,14.841h6.171c0,0,0-8.19,0-14.841
				h4.161L326.879,72.488z"/>
		</g>
	</g>
	<g>
		<path style="fill:#349EE5;" d="M328.987,141.627L189.63,125.596c-3.333,0-6.629,2.702-6.629,6.038v44.415
			c0,3.335,3.911,6.951,7.246,6.951h62.471c0.231,4-1.943,10.842-10.154,15.28c0,0,15.404,2.72,22.753-15.28h63.695
			c3.335,0,5.989-3.616,5.989-6.951v-28.383C335.001,144.33,332.321,141.627,328.987,141.627z"/>
		<text transform="matrix(1 0 0 1 202.2861 157.6558)" style="fill:#FAFCFB; font-family:'Quicksand-Bold'; font-size:16.8324px;">INFLUENCER </text>
		<text transform="matrix(1 0 0 1 199.8652 176.1445)" style="fill:#FAFCFB; font-family:'Quicksand-Bold'; font-size:18.8858px;">MARKETING</text>
	</g>
	<g>
		<g>
			<path style="fill:#929393;" d="M153.597,324.451c-0.024,0.238-0.072,0.467-0.072,0.711v0.381c0,3.795,3.078,6.873,6.873,6.873
				h191.876c3.796,0,6.874-3.078,6.874-6.873v-0.381c0-0.244-0.048-0.473-0.072-0.711H153.597z"/>
			<path style="fill:#929393;" d="M340.001,322.291c0,2.601-2.107,4.709-4.707,4.709H177.708c-2.6,0-4.707-2.108-4.707-4.709
				v-98.582c0-2.601,2.107-4.709,4.707-4.709h157.586c2.6,0,4.707,2.108,4.707,4.709V322.291z"/>
			<rect x="179.001" y="226" style="fill:#23292A;" width="155" height="96"/>
			<path style="fill:#23292A;" d="M274.001,327.5c0,0.828-0.672,1.5-1.5,1.5h-32c-0.828,0-1.5-0.672-1.5-1.5l0,0
				c0-0.828,0.672-1.5,1.5-1.5h32C273.329,326,274.001,326.672,274.001,327.5L274.001,327.5z"/>
			<path style="fill:#23292A;" d="M257.905,222.815c0,0.868-0.702,1.569-1.569,1.569c-0.867,0-1.569-0.701-1.569-1.569
				c0-0.867,0.702-1.569,1.569-1.569C257.203,221.246,257.905,221.948,257.905,222.815z"/>
		</g>
		<g>
			<g>
				<text transform="matrix(1 0 0 1 222.6543 266.7261)" style="fill:#FCFCFC; font-family:'Raleway-Black'; font-size:8.8079px;">SOCIAL MEDIA</text>
				<text transform="matrix(1 0 0 1 222.6338 286.6792)" style="fill:#FCFCFC; font-family:'Raleway-Black'; font-size:16.0632px;">WORLD</text>
			</g>
			<g>
				
					<line style="fill:#FCFCFC;stroke:#FAFCFB;stroke-width:3;stroke-miterlimit:10;" x1="243.001" y1="236.5" x2="264.001" y2="236.5"/>
				
					<line style="fill:#FCFCFC;stroke:#FAFCFB;stroke-width:3;stroke-miterlimit:10;" x1="243.001" y1="315.5" x2="264.001" y2="315.5"/>
			</g>
		</g>
		
			<path style="fill:none;stroke:#3A6EBA;stroke-width:2;stroke-linecap:round;stroke-linejoin:round;stroke-miterlimit:10;stroke-dasharray:8,6;" d="
			M359.147,252.935c-2.666,17.902-38.242,29.859-90.456,40.709c-52.214,10.849-97.396,5.906-100.917-11.042
			c-0.816-3.925,0.675-8.15,4.097-12.46"/>
		
			<path style="fill:none;stroke:#3A6EBA;stroke-width:2;stroke-linecap:round;stroke-linejoin:round;stroke-miterlimit:10;stroke-dasharray:8,6;" d="
			M194.282,206.832c17.95,1.029,43.843,9.069,74.972,20.984c49.805,19.063,85.164,47.621,78.977,63.787
			c-1.433,3.744-4.969,6.496-10.177,8.275"/>
		<g>
			<polygon style="fill:#3A6EBA;" points="358.143,269.16 351.713,257.09 394.412,236.596 			"/>
			<polygon style="fill:#363C76;" points="393.837,236.976 358.143,269.16 362.754,260.643 			"/>
			<polygon style="fill:#6BE0FF;" points="394.412,236.596 362.754,260.643 375.256,265.674 			"/>
			<polygon style="fill:#6BE0FF;" points="351.713,257.09 340.041,253.819 394.412,236.596 			"/>
		</g>
		<g>
			<polygon style="fill:#3A6EBA;" points="182.396,211.16 188.826,199.09 146.127,178.596 			"/>
			<polygon style="fill:#363C76;" points="146.702,178.976 182.396,211.16 177.785,202.643 			"/>
			<polygon style="fill:#6BE0FF;" points="146.127,178.596 177.785,202.643 165.283,207.674 			"/>
			<polygon style="fill:#6BE0FF;" points="188.826,199.09 200.498,195.819 146.127,178.596 			"/>
		</g>
	</g>
</g>
</svg>
