<?xml version="1.0" standalone="no"?>
<!DOCTYPE svg PUBLIC "-//W3C//DTD SVG 20010904//EN"
 "http://www.w3.org/TR/2001/REC-SVG-20010904/DTD/svg10.dtd">
<svg version="1.0" xmlns="http://www.w3.org/2000/svg"
 width="1221.000000pt" height="844.000000pt" viewBox="0 0 1221.000000 844.000000"
 preserveAspectRatio="xMidYMid meet">

<g transform="translate(0.000000,844.000000) scale(0.100000,-0.100000)"
fill="#530FFE" stroke="none">
<path d="M809 8174 c-26 -8 -61 -27 -78 -43 -27 -26 -31 -36 -31 -83 0 -87 36
-177 252 -637 22 -47 68 -149 103 -226 35 -77 93 -203 130 -280 37 -77 90
-189 117 -250 67 -147 208 -454 246 -535 74 -160 142 -309 142 -313 0 -3 28
-63 61 -133 34 -71 91 -194 126 -274 104 -231 108 -240 162 -349 58 -118 88
-158 140 -186 35 -20 57 -20 936 -22 495 -2 929 -7 965 -12 189 -26 311 -123
405 -323 28 -59 154 -412 245 -688 10 -30 50 -147 88 -260 121 -351 263 -763
277 -805 7 -22 70 -206 140 -410 70 -203 146 -426 170 -495 23 -69 51 -152 63
-185 38 -110 222 -646 323 -944 106 -313 123 -354 161 -387 48 -44 136 -36
185 17 28 31 34 46 189 499 29 85 69 202 89 260 20 58 77 222 125 365 49 143
123 359 165 480 42 121 87 252 100 290 12 39 55 162 94 275 92 261 174 499
266 770 41 118 108 314 150 435 42 121 107 312 146 425 38 113 73 214 78 225
5 11 23 56 41 99 58 146 160 265 264 311 128 56 99 55 1073 55 646 0 910 3
934 11 91 31 131 85 237 325 44 98 100 222 125 274 24 52 55 118 67 145 21 46
269 590 310 680 10 22 44 93 74 158 31 65 56 119 56 121 0 3 150 330 247 536
14 30 49 107 78 170 72 159 81 178 188 410 114 246 132 297 132 372 0 51 -4
61 -31 88 -61 61 -23 60 -1299 60 -1110 0 -1162 -1 -1200 -19 -74 -34 -108
-83 -195 -281 -45 -102 -89 -201 -97 -220 -24 -54 -65 -142 -131 -285 -33 -71
-92 -200 -130 -285 -39 -85 -105 -229 -147 -320 -42 -91 -85 -186 -96 -212
-10 -27 -44 -101 -75 -165 -31 -65 -69 -147 -84 -183 -15 -36 -49 -110 -75
-165 -166 -352 -222 -443 -363 -585 -138 -138 -279 -225 -432 -264 -36 -10
-83 -22 -105 -28 -65 -18 -464 -26 -1045 -22 -700 5 -748 10 -961 112 -141 68
-285 189 -386 327 -99 135 -113 161 -332 638 -50 109 -91 200 -91 202 0 1 -27
60 -60 129 -33 70 -60 128 -60 130 0 2 -20 46 -44 98 -24 51 -53 116 -66 143
-12 28 -65 142 -116 254 -52 111 -94 205 -94 206 0 5 -54 122 -100 220 -21 44
-65 141 -98 215 -125 283 -155 326 -239 349 -26 7 -409 11 -1198 10 -976 0
-1167 -3 -1206 -15z"/>
</g>
</svg>
